<?xml version="1.0" standalone="no"?>
<!DOCTYPE svg PUBLIC "-//W3C//DTD SVG 1.1//EN"
  "http://www.w3.org/Graphics/SVG/1.1/DTD/svg11.dtd">
<svg width="136.502" height="191.676" version="1.1"
     xmlns="http://www.w3.org/2000/svg">

<!-- created by Unknown on <date>, using Aspic (version omitted) -->
<title>Unknown</title>

<g transform="translate(0,191.676)" font-family="Times" font-size="12">
<rect x="0.25" y="-191.426" width="10" height="100" fill="none" stroke="#000000" stroke-width="0.5"/>
<path d="M 10.25 -141.426
l 10 0
" fill="none" stroke="#000000" stroke-width="0.4"/>
<rect x="20.25" y="-159.426" width="10" height="36" fill="none" stroke="#000000" stroke-width="0.5"/>
<rect x="30.25" y="-159.426" width="72" height="36" fill="none" stroke="#000000" stroke-width="0.5"/>
<rect x="102.25" y="-159.426" width="10" height="36" fill="none" stroke="#000000" stroke-width="0.5"/>
<rect x="10.25" y="-191.426" width="72" height="100" fill="none" stroke="#000000" stroke-width="0.5"/>
<path d="M 46.25 -91.426
l 0 10
" fill="none" stroke="#000000" stroke-width="40"/>
<path d="M 46.25 -81.426
l 0 -10
" fill="none" stroke="#FF0000" stroke-width="5"/>
<path d="M 46.25 -81.426
l 5 10
" fill="none" stroke="#000000" stroke-width="5"/>
<path d="M 51.25 -71.426
l 0 10
c -0.001 4.187 0.737 8.378 2.171 12.312
" fill="none" stroke="#000000" stroke-width="0.4"/>
<path d="M 53.422 -49.114
c 1.43 3.935 3.558 7.621 6.251 10.827
" fill="none" stroke="#FF0000" stroke-width="0.4"/>
<path d="M 59.674 -38.286
c 2.689 3.208 5.95 5.944 9.577 8.036
" fill="none" stroke="#00FF00" stroke-width="0.4"/>
<path d="M 69.252 -30.25
l 20 0
" fill="none" stroke="#7F7F7F" stroke-width="4"/>
<path d="M 89.252 -30.25
l 0 -36
" fill="none" stroke="#7F7F7F" stroke-width="5"/>
<path d="M 89.252 -66.25
l -60 0
" fill="none" stroke="#FF0000" stroke-width="0.4"/>
<path d="M 29.252 -66.25
l 0 4
" fill="none" stroke="#000000" stroke-width="0.4"/>
<rect x="24.252" y="-62.25" width="10" height="10" fill="#FF0000" stroke="#000000" stroke-width="0.5"/>
<path d="M 29.252 -52.25
l 0 4
" fill="none" stroke="#000000" stroke-width="0.4"/>
<rect x="24.252" y="-48.25" width="10" height="10" fill="#FF0000" stroke="#000000" stroke-width="0.5"/>
<path d="M 29.252 -38.25
l 0 15
" fill="none" stroke="#000000" stroke-width="0.4"/>
<circle cx="29.252" cy="-18.25" r="5" fill="none" stroke="#000000" stroke-width="0.4"/>
<circle cx="39.252" cy="-18.25" r="5" fill="none" stroke="#000000" stroke-width="0.4"/>
<rect x="44.252" y="-36.25" width="10" height="36" fill="none" stroke="#000000" stroke-width="0.5"/>
<circle cx="59.252" cy="-18.25" r="5" fill="none" stroke="#000000" stroke-width="0.4"/>
<rect x="64.252" y="-23.25" width="72" height="10" fill="none" stroke="#000000" stroke-width="0.5"/>
</g></svg>
