<?xml version="1.0" standalone="no"?>
<!DOCTYPE svg PUBLIC "-//W3C//DTD SVG 1.1//EN"
  "http://www.w3.org/Graphics/SVG/1.1/DTD/svg11.dtd">
<svg width="112.5" height="163.426" version="1.1"
     xmlns="http://www.w3.org/2000/svg">

<!-- created by Unknown on <date>, using Aspic (version omitted) -->
<title>Unknown</title>

<g transform="translate(0,163.426)" font-family="Times" font-size="12">
<rect x="0.25" y="-163.176" width="10" height="100" fill="none" stroke="#000000" stroke-width="0.5"/>
<path d="M 10.25 -113.176
l 10 0
" fill="none" stroke="#000000" stroke-width="0.4"/>
<rect x="20.25" y="-131.176" width="10" height="36" fill="none" stroke="#000000" stroke-width="0.5"/>
<rect x="30.25" y="-131.176" width="72" height="36" fill="none" stroke="#000000" stroke-width="0.5"/>
<rect x="102.25" y="-131.176" width="10" height="36" fill="none" stroke="#000000" stroke-width="0.5"/>
<rect x="10.25" y="-163.176" width="72" height="100" fill="none" stroke="#000000" stroke-width="0.5"/>
<path d="M 46.25 -63.176
l 0 10
" fill="none" stroke="#000000" stroke-width="40"/>
<path d="M 46.25 -53.176
l 0 -10
" fill="none" stroke="#FF0000" stroke-width="5"/>
<path d="M 46.25 -53.176
l 5 10
" fill="none" stroke="#000000" stroke-width="5"/>
<path d="M 51.25 -43.176
l 0 10
c -0.001 4.187 0.737 8.378 2.171 12.312
" fill="none" stroke="#000000" stroke-width="0.4"/>
<path d="M 53.422 -20.864
c 1.43 3.935 3.558 7.621 6.251 10.827
" fill="none" stroke="#FF0000" stroke-width="0.4"/>
<path d="M 59.674 -10.036
c 2.689 3.208 5.95 5.944 9.577 8.036
" fill="none" stroke="#00FF00" stroke-width="0.4"/>
<path d="M 69.252 -2
l 20 0
" fill="none" stroke="#7F7F7F" stroke-width="4"/>
<path d="M 89.252 -2
l 0 -36
" fill="none" stroke="#7F7F7F" stroke-width="5"/>
<path d="M 89.252 -38
l -60 0
" fill="none" stroke="#FF0000" stroke-width="0.4"/>
<path d="M 29.252 -38
l 0 4
" fill="none" stroke="#000000" stroke-width="0.4"/>
<rect x="24.252" y="-34" width="10" height="10" fill="#FF0000" stroke="#000000" stroke-width="0.5"/>
<path d="M 29.252 -24
l 0 4
" fill="none" stroke="#000000" stroke-width="0.4"/>
<rect x="24.252" y="-20" width="10" height="10" fill="#FF0000" stroke="#000000" stroke-width="0.5"/>
</g></svg>
